<?xml version="1.0" encoding="UTF-8" standalone="no" ?>
<!DOCTYPE svg PUBLIC "-//W3C//DTD SVG 1.1//EN" "http://www.w3.org/Graphics/SVG/1.1/DTD/svg11.dtd">
<svg xmlns="http://www.w3.org/2000/svg" xmlns:xlink="http://www.w3.org/1999/xlink" version="1.1" width="1080" height="1080" viewBox="0 0 1080 1080" xml:space="preserve">
<desc>Created with Fabric.js 5.2.4</desc>
<defs>
</defs>
<g transform="matrix(1 0 0 1 540 540)" id="5aba57f1-62dd-4d61-b78c-2dd19b5b398b"  >
<rect style="stroke: none; stroke-width: 1; stroke-dasharray: none; stroke-linecap: butt; stroke-dashoffset: 0; stroke-linejoin: miter; stroke-miterlimit: 4; fill: rgb(255,255,255); fill-rule: nonzero; opacity: 1; visibility: hidden;" vector-effect="non-scaling-stroke"  x="-540" y="-540" rx="0" ry="0" width="1080" height="1080" />
</g>
<g transform="matrix(1 0 0 1 540 540)" id="c1bf2f78-60d4-40b5-b0cc-7402353a7468"  >
</g>
<g transform="matrix(1 0 0 1 540 687.13)"  >
<g style="" vector-effect="non-scaling-stroke"   >
		<g transform="matrix(1 0 0 1 -153.5 205.65)"  >
<path style="stroke: none; stroke-width: 1; stroke-dasharray: none; stroke-linecap: butt; stroke-dashoffset: 0; stroke-linejoin: miter; stroke-miterlimit: 4; fill: rgb(255,255,255); fill-rule: nonzero; opacity: 1;" vector-effect="non-scaling-stroke"  transform=" translate(-66.8, -561)" d="M 33.8 644.5 L 33.8 477.5 L 57.099999999999994 477.5 L 57.099999999999994 627.8 L 99.8 627.8 L 99.8 644.5 L 33.8 644.5 z" stroke-linecap="round" />
</g>
		<g transform="matrix(1 0 0 1 -61.7 206.65)"  >
<path style="stroke: none; stroke-width: 1; stroke-dasharray: none; stroke-linecap: butt; stroke-dashoffset: 0; stroke-linejoin: miter; stroke-miterlimit: 4; fill: rgb(255,255,255); fill-rule: nonzero; opacity: 1;" vector-effect="non-scaling-stroke"  transform=" translate(-158.6, -562)" d="M 158.7 646.4 C 146.6 646.4 137.29999999999998 644 130.89999999999998 639.1999999999999 C 124.39999999999998 634.4 119.99999999999997 627.5999999999999 117.69999999999997 618.9 C 115.39999999999998 610.1999999999999 114.19999999999997 600 114.19999999999997 588.3 L 114.19999999999997 477.6 L 136.49999999999997 477.6 L 136.49999999999997 589.3000000000001 C 136.49999999999997 596.4000000000001 136.99999999999997 603.0000000000001 137.89999999999998 608.9000000000001 C 138.89999999999998 614.8000000000001 140.99999999999997 619.5000000000001 144.2 622.9000000000001 C 147.39999999999998 626.3000000000001 152.29999999999998 628.1000000000001 158.7 628.1000000000001 C 165.29999999999998 628.1000000000001 170.2 626.4000000000001 173.29999999999998 622.9000000000001 C 176.49999999999997 619.5000000000001 178.49999999999997 614.8000000000001 179.49999999999997 608.9000000000001 C 180.49999999999997 603.0000000000001 180.89999999999998 596.5000000000001 180.89999999999998 589.3000000000001 L 180.89999999999998 477.6 L 203 477.6 L 203 588.3000000000001 C 203 600.0000000000001 201.8 610.2 199.5 618.9000000000001 C 197.2 627.6000000000001 192.8 634.4000000000001 186.4 639.2 C 180.1 644 170.8 646.4 158.7 646.4 z" stroke-linecap="round" />
</g>
		<g transform="matrix(1 0 0 1 48.65 205.7)"  >
<path style="stroke: none; stroke-width: 1; stroke-dasharray: none; stroke-linecap: butt; stroke-dashoffset: 0; stroke-linejoin: miter; stroke-miterlimit: 4; fill: rgb(255,255,255); fill-rule: nonzero; opacity: 1;" vector-effect="non-scaling-stroke"  transform=" translate(-268.95, -561.05)" d="M 227.6 644.5 L 227.6 477.5 L 243.5 477.5 L 290.9 588.4 L 290.9 477.6 L 310.29999999999995 477.6 L 310.29999999999995 644.6 L 295.49999999999994 644.6 L 247.49999999999994 530.6 L 247.49999999999994 644.6 L 227.6 644.6 z" stroke-linecap="round" />
</g>
		<g transform="matrix(1 0 0 1 153.85 205.65)"  >
<path style="stroke: none; stroke-width: 1; stroke-dasharray: none; stroke-linecap: butt; stroke-dashoffset: 0; stroke-linejoin: miter; stroke-miterlimit: 4; fill: rgb(255,255,255); fill-rule: nonzero; opacity: 1;" vector-effect="non-scaling-stroke"  transform=" translate(-374.15, -561)" d="M 327.3 644.5 L 362.8 477.5 L 385.3 477.5 L 421 644.5 L 398.9 644.5 L 391.29999999999995 602.4 L 357.29999999999995 602.4 L 349.29999999999995 644.5 L 327.3 644.5 z M 360.3 585.8 L 388.1 585.8 L 374.1 510.59999999999997 L 360.3 585.8 z" stroke-linecap="round" />
</g>
		<g transform="matrix(1 0 0 1 -178.1 336.8)"  >
<path style="stroke: none; stroke-width: 1; stroke-dasharray: none; stroke-linecap: butt; stroke-dashoffset: 0; stroke-linejoin: miter; stroke-miterlimit: 4; fill: rgb(255,255,255); fill-rule: nonzero; opacity: 1;" vector-effect="non-scaling-stroke"  transform=" translate(-42.2, -692.15)" d="M 33.4 710.3 L 27.5 674 L 31.7 674 L 35.6 700.1 L 40.5 674.1 L 44.1 674.1 L 49 700.2 L 52.8 674 L 56.9 674 L 51.1 710.3 L 47.4 710.3 L 42.3 683.4 L 37.199999999999996 710.3 L 33.4 710.3 z" stroke-linecap="round" />
</g>
		<g transform="matrix(1 0 0 1 -129.8 336.8)"  >
<path style="stroke: none; stroke-width: 1; stroke-dasharray: none; stroke-linecap: butt; stroke-dashoffset: 0; stroke-linejoin: miter; stroke-miterlimit: 4; fill: rgb(255,255,255); fill-rule: nonzero; opacity: 1;" vector-effect="non-scaling-stroke"  transform=" translate(-90.5, -692.15)" d="M 83.4 710.3 L 83.4 674 L 97.5 674 L 97.5 677.8 L 88.5 677.8 L 88.5 689.8 L 95.8 689.8 L 95.8 693.4 L 88.5 693.4 L 88.5 706.6999999999999 L 97.6 706.6999999999999 L 97.6 710.3 L 83.4 710.3 z" stroke-linecap="round" />
</g>
		<g transform="matrix(1 0 0 1 -87.25 336.85)"  >
<path style="stroke: none; stroke-width: 1; stroke-dasharray: none; stroke-linecap: butt; stroke-dashoffset: 0; stroke-linejoin: miter; stroke-miterlimit: 4; fill: rgb(255,255,255); fill-rule: nonzero; opacity: 1;" vector-effect="non-scaling-stroke"  transform=" translate(-133.05, -692.2)" d="M 123.6 710.3 L 123.6 674 L 131.9 674 C 133.5 674 135 674.2 136.20000000000002 674.5 C 137.40000000000003 674.8 138.4 675.4 139.20000000000002 676.2 C 140.00000000000003 676.9000000000001 140.60000000000002 677.9000000000001 141.00000000000003 679 C 141.40000000000003 680.2 141.60000000000002 681.5 141.60000000000002 683.1 C 141.60000000000002 684.6 141.40000000000003 685.9 141.00000000000003 687 C 140.60000000000002 688.1 140.10000000000002 689 139.30000000000004 689.6 C 138.50000000000003 690.2 137.60000000000005 690.6 136.40000000000003 690.8000000000001 C 137.90000000000003 691.1 139.00000000000003 691.7 139.90000000000003 692.5000000000001 C 140.80000000000004 693.3000000000001 141.50000000000003 694.3000000000001 141.90000000000003 695.5000000000001 C 142.30000000000004 696.7000000000002 142.50000000000003 698.2000000000002 142.50000000000003 700.0000000000001 C 142.50000000000003 701.6000000000001 142.30000000000004 703.0000000000001 142.00000000000003 704.3000000000001 C 141.60000000000002 705.6 141.10000000000002 706.7 140.30000000000004 707.6 C 139.50000000000003 708.5 138.60000000000005 709.2 137.40000000000003 709.7 C 136.20000000000005 710.2 134.80000000000004 710.4000000000001 133.20000000000005 710.4000000000001 L 123.6 710.4000000000001 z M 128.6 689.1 L 131.6 689.1 C 133 689.1 134.2 688.9 135 688.5 C 135.8 688.1 136.4 687.4 136.7 686.5 C 137 685.6 137.2 684.4 137.2 683 C 137.2 681.3 136.89999999999998 680.1 136.39999999999998 679.4 C 135.89999999999998 678.6999999999999 135.09999999999997 678.1999999999999 133.99999999999997 678 C 132.89999999999998 677.8 131.49999999999997 677.7 129.79999999999998 677.7 L 128.6 677.7 L 128.6 689.1 z M 128.6 706.7 L 132 706.7 C 134.3 706.7 135.8 706.2 136.5 705.1 C 137.3 704 137.6 702.3000000000001 137.6 700 C 137.6 698.5 137.4 697.2 137 696.2 C 136.6 695.2 136 694.4000000000001 135.1 693.9000000000001 C 134.2 693.4000000000001 133 693.1000000000001 131.5 693.1000000000001 L 128.5 693.1000000000001 L 128.5 706.7 z" stroke-linecap="round" />
</g>
		<g transform="matrix(1 0 0 1 -9.65 336.8)"  >
<path style="stroke: none; stroke-width: 1; stroke-dasharray: none; stroke-linecap: butt; stroke-dashoffset: 0; stroke-linejoin: miter; stroke-miterlimit: 4; fill: rgb(255,255,255); fill-rule: nonzero; opacity: 1;" vector-effect="non-scaling-stroke"  transform=" translate(-210.65, -692.15)" d="M 201.3 710.3 L 201.3 674 L 209.20000000000002 674 C 211.9 674 214.00000000000003 674.4 215.60000000000002 675.2 C 217.20000000000002 676 218.3 677.3000000000001 219.00000000000003 678.9000000000001 C 219.70000000000005 680.5000000000001 220.00000000000003 682.6000000000001 220.00000000000003 685.0000000000001 L 220.00000000000003 698.4000000000001 C 220.00000000000003 701.0000000000001 219.70000000000002 703.1000000000001 219.00000000000003 704.9000000000001 C 218.30000000000004 706.7 217.20000000000002 708.0000000000001 215.70000000000002 708.9000000000001 C 214.20000000000002 709.8000000000001 212.20000000000002 710.3000000000001 209.60000000000002 710.3000000000001 L 201.3 710.3000000000001 z M 206.3 706.7 L 209.20000000000002 706.7 C 211.10000000000002 706.7 212.4 706.3000000000001 213.10000000000002 705.6 C 213.90000000000003 704.9 214.3 703.8000000000001 214.50000000000003 702.5 C 214.70000000000002 701.1 214.70000000000002 699.5 214.70000000000002 697.5 L 214.70000000000002 685.7 C 214.70000000000002 683.8000000000001 214.60000000000002 682.3000000000001 214.3 681.1 C 214.10000000000002 679.9 213.5 679.1 212.70000000000002 678.5 C 211.9 678 210.60000000000002 677.7 208.9 677.7 L 206.20000000000002 677.7 L 206.20000000000002 706.7 z" stroke-linecap="round" />
</g>
		<g transform="matrix(1 0 0 1 33.6 336.8)"  >
<path style="stroke: none; stroke-width: 1; stroke-dasharray: none; stroke-linecap: butt; stroke-dashoffset: 0; stroke-linejoin: miter; stroke-miterlimit: 4; fill: rgb(255,255,255); fill-rule: nonzero; opacity: 1;" vector-effect="non-scaling-stroke"  transform=" translate(-253.9, -692.15)" d="M 246.8 710.3 L 246.8 674 L 260.90000000000003 674 L 260.90000000000003 677.8 L 251.90000000000003 677.8 L 251.90000000000003 689.8 L 259.20000000000005 689.8 L 259.20000000000005 693.4 L 251.90000000000003 693.4 L 251.90000000000003 706.6999999999999 L 261.00000000000006 706.6999999999999 L 261.00000000000006 710.3 L 246.8 710.3 z" stroke-linecap="round" />
</g>
		<g transform="matrix(1 0 0 1 74.75 336.8)"  >
<path style="stroke: none; stroke-width: 1; stroke-dasharray: none; stroke-linecap: butt; stroke-dashoffset: 0; stroke-linejoin: miter; stroke-miterlimit: 4; fill: rgb(255,255,255); fill-rule: nonzero; opacity: 1;" vector-effect="non-scaling-stroke"  transform=" translate(-295.05, -692.15)" d="M 295.6 710.7 C 293.5 710.7 291.8 710.3000000000001 290.40000000000003 709.4000000000001 C 289.00000000000006 708.5000000000001 288.00000000000006 707.3000000000001 287.20000000000005 705.7 C 286.50000000000006 704.1 286.1 702.3000000000001 285.90000000000003 700.2 L 290.40000000000003 699 C 290.50000000000006 700.3 290.70000000000005 701.5 291.00000000000006 702.7 C 291.30000000000007 703.9000000000001 291.80000000000007 704.9000000000001 292.50000000000006 705.6 C 293.20000000000005 706.4 294.20000000000005 706.7 295.50000000000006 706.7 C 296.80000000000007 706.7 297.80000000000007 706.3000000000001 298.50000000000006 705.6 C 299.20000000000005 704.9 299.50000000000006 703.8000000000001 299.50000000000006 702.4 C 299.50000000000006 700.8 299.1000000000001 699.4 298.40000000000003 698.4 C 297.70000000000005 697.4 296.70000000000005 696.4 295.6 695.4 L 289.5 690 C 288.3 689 287.4 687.8 286.9 686.6 C 286.29999999999995 685.4 286 683.8000000000001 286 682 C 286 679.3 286.8 677.3 288.3 675.8 C 289.8 674.3 291.90000000000003 673.5999999999999 294.5 673.5999999999999 C 295.9 673.5999999999999 297.2 673.8 298.3 674.1999999999999 C 299.40000000000003 674.5999999999999 300.3 675.0999999999999 301 675.9 C 301.7 676.6999999999999 302.3 677.6999999999999 302.7 678.8 C 303.09999999999997 680 303.4 681.4 303.59999999999997 682.9 L 299.29999999999995 684.1 C 299.19999999999993 682.9 298.99999999999994 681.8000000000001 298.79999999999995 680.8000000000001 C 298.49999999999994 679.8000000000001 298.09999999999997 679.0000000000001 297.4 678.4000000000001 C 296.7 677.8000000000001 295.79999999999995 677.5000000000001 294.5 677.5000000000001 C 293.2 677.5000000000001 292.3 677.8000000000001 291.6 678.5000000000001 C 290.90000000000003 679.2000000000002 290.5 680.2000000000002 290.5 681.5000000000001 C 290.5 682.6000000000001 290.7 683.5000000000001 291.1 684.2000000000002 C 291.5 684.9000000000002 292.1 685.6000000000001 292.90000000000003 686.4000000000002 L 299.00000000000006 691.8000000000002 C 300.40000000000003 693.0000000000002 301.6000000000001 694.4000000000002 302.6000000000001 696.1000000000001 C 303.6000000000001 697.8000000000002 304.2000000000001 699.7000000000002 304.2000000000001 702.0000000000001 C 304.2000000000001 703.8000000000001 303.8000000000001 705.3000000000001 303.1000000000001 706.6000000000001 C 302.4000000000001 707.9000000000001 301.30000000000007 708.9000000000001 300.00000000000006 709.6000000000001 C 298.8 710.4 297.3 710.7 295.6 710.7 z" stroke-linecap="round" />
</g>
		<g transform="matrix(1 0 0 1 112.7 336.8)"  >
<path style="stroke: none; stroke-width: 1; stroke-dasharray: none; stroke-linecap: butt; stroke-dashoffset: 0; stroke-linejoin: miter; stroke-miterlimit: 4; fill: rgb(255,255,255); fill-rule: nonzero; opacity: 1;" vector-effect="non-scaling-stroke"  transform=" translate(-333, -692.15)" d="M 330.5 710.3 L 330.5 674 L 335.5 674 L 335.5 710.3 L 330.5 710.3 z" stroke-linecap="round" />
</g>
		<g transform="matrix(1 0 0 1 152.05 336.8)"  >
<path style="stroke: none; stroke-width: 1; stroke-dasharray: none; stroke-linecap: butt; stroke-dashoffset: 0; stroke-linejoin: miter; stroke-miterlimit: 4; fill: rgb(255,255,255); fill-rule: nonzero; opacity: 1;" vector-effect="non-scaling-stroke"  transform=" translate(-372.35, -692.15)" d="M 372 710.7 C 369.7 710.7 367.9 710.2 366.6 709.2 C 365.20000000000005 708.2 364.3 706.8000000000001 363.6 705 C 363 703.1 362.70000000000005 700.9 362.70000000000005 698.3 L 362.70000000000005 686.1999999999999 C 362.70000000000005 683.4999999999999 363.00000000000006 681.3 363.50000000000006 679.4 C 364.1000000000001 677.5 365.00000000000006 676.1 366.50000000000006 675.1 C 367.90000000000003 674.1 369.90000000000003 673.6 372.40000000000003 673.6 C 374.70000000000005 673.6 376.50000000000006 674 377.90000000000003 674.7 C 379.3 675.5 380.3 676.6 380.90000000000003 678.2 C 381.50000000000006 679.8000000000001 381.8 681.7 381.8 684.1 L 381.8 685.4 L 377 685.4 L 377 684.3 C 377 682.6999999999999 376.9 681.4 376.7 680.4 C 376.5 679.4 376.09999999999997 678.6999999999999 375.4 678.1999999999999 C 374.79999999999995 677.6999999999999 373.7 677.4999999999999 372.4 677.4999999999999 C 370.9 677.4999999999999 369.79999999999995 677.7999999999998 369.09999999999997 678.4999999999999 C 368.4 679.1999999999999 367.99999999999994 680.0999999999999 367.79999999999995 681.2999999999998 C 367.59999999999997 682.4999999999999 367.59999999999997 683.7999999999998 367.59999999999997 685.2999999999998 L 367.59999999999997 698.6999999999998 C 367.59999999999997 700.3999999999999 367.7 701.8999999999999 367.99999999999994 702.9999999999998 C 368.29999999999995 704.1999999999998 368.69999999999993 704.9999999999998 369.49999999999994 705.5999999999998 C 370.19999999999993 706.1999999999998 371.19999999999993 706.4999999999998 372.49999999999994 706.4999999999998 C 373.79999999999995 706.4999999999998 374.79999999999995 706.1999999999998 375.49999999999994 705.5999999999998 C 376.19999999999993 704.9999999999998 376.69999999999993 703.9999999999998 376.99999999999994 702.7999999999998 C 377.29999999999995 701.5999999999998 377.3999999999999 700.0999999999998 377.3999999999999 698.1999999999998 L 377.3999999999999 695.6999999999998 L 372.7999999999999 695.6999999999998 L 372.7999999999999 692.0999999999998 L 381.9999999999999 692.0999999999998 L 381.9999999999999 710.0999999999998 L 378.7999999999999 710.0999999999998 L 378.2999999999999 705.8999999999997 C 377.7999999999999 707.1999999999997 377.0999999999999 708.3999999999997 376.0999999999999 709.1999999999997 C 375.0999999999999 709.9999999999997 373.8 710.7 372 710.7 z" stroke-linecap="round" />
</g>
		<g transform="matrix(1 0 0 1 198 336.8)"  >
<path style="stroke: none; stroke-width: 1; stroke-dasharray: none; stroke-linecap: butt; stroke-dashoffset: 0; stroke-linejoin: miter; stroke-miterlimit: 4; fill: rgb(255,255,255); fill-rule: nonzero; opacity: 1;" vector-effect="non-scaling-stroke"  transform=" translate(-418.3, -692.15)" d="M 409.3 710.3 L 409.3 674 L 412.8 674 L 423.1 698.1 L 423.1 674 L 427.3 674 L 427.3 710.3 L 424 710.3 L 413.6 685.5 L 413.6 710.3 L 409.3 710.3 z" stroke-linecap="round" />
</g>
		<g transform="matrix(1 0 0 1 0 -147.05)"  >
<circle style="stroke: none; stroke-width: 1; stroke-dasharray: none; stroke-linecap: butt; stroke-dashoffset: 0; stroke-linejoin: miter; stroke-miterlimit: 4; fill: rgb(255,255,255); fill-rule: nonzero; opacity: 1;" vector-effect="non-scaling-stroke"  cx="0" cy="0" r="208.3" />
</g>
		<g transform="matrix(1 0 0 1 -97.1 -147)"  >
<path style="stroke: none; stroke-width: 1; stroke-dasharray: none; stroke-linecap: butt; stroke-dashoffset: 0; stroke-linejoin: miter; stroke-miterlimit: 4; fill: rgb(0,29,61); fill-rule: nonzero; opacity: 1;" vector-effect="non-scaling-stroke"  transform=" translate(-123.2, -208.35)" d="M 220.4 402.7 C 113 402.7 26 315.7 26 208.3 C 26 100.90000000000003 113 14 220.4 14" stroke-linecap="round" />
</g>
		<g transform="matrix(1 0 0 1 52.4 -10.35)"  >
<circle style="stroke: none; stroke-width: 1; stroke-dasharray: none; stroke-linecap: butt; stroke-dashoffset: 0; stroke-linejoin: miter; stroke-miterlimit: 4; fill: rgb(0,20,59); fill-rule: nonzero; opacity: 1;" vector-effect="non-scaling-stroke"  cx="0" cy="0" r="25" />
</g>
		<g transform="matrix(1 0 0 1 134.5 -72.25)"  >
<circle style="stroke: none; stroke-width: 1; stroke-dasharray: none; stroke-linecap: butt; stroke-dashoffset: 0; stroke-linejoin: miter; stroke-miterlimit: 4; fill: rgb(0,20,59); fill-rule: nonzero; opacity: 1;" vector-effect="non-scaling-stroke"  cx="0" cy="0" r="18.1" />
</g>
		<g transform="matrix(1 0 0 1 51.3 -108.25)"  >
<circle style="stroke: none; stroke-width: 1; stroke-dasharray: none; stroke-linecap: butt; stroke-dashoffset: 0; stroke-linejoin: miter; stroke-miterlimit: 4; fill: rgb(0,20,59); fill-rule: nonzero; opacity: 1;" vector-effect="non-scaling-stroke"  cx="0" cy="0" r="11.3" />
</g>
		<g transform="matrix(1 0 0 1 158.5 -177.85)"  >
<circle style="stroke: none; stroke-width: 1; stroke-dasharray: none; stroke-linecap: butt; stroke-dashoffset: 0; stroke-linejoin: miter; stroke-miterlimit: 4; fill: rgb(0,20,59); fill-rule: nonzero; opacity: 1;" vector-effect="non-scaling-stroke"  cx="0" cy="0" r="8.7" />
</g>
		<g transform="matrix(1 0 0 1 110.9 -131.55)"  >
<circle style="stroke: none; stroke-width: 1; stroke-dasharray: none; stroke-linecap: butt; stroke-dashoffset: 0; stroke-linejoin: miter; stroke-miterlimit: 4; fill: rgb(0,20,59); fill-rule: nonzero; opacity: 1;" vector-effect="non-scaling-stroke"  cx="0" cy="0" r="4.4" />
</g>
</g>
</g>
</svg>