<?xml version="1.0" encoding="utf-8"?>
<!-- Generator: Adobe Illustrator 19.2.1, SVG Export Plug-In . SVG Version: 6.00 Build 0)  -->
<svg version="1.1" id="Camada_1" xmlns="http://www.w3.org/2000/svg" xmlns:xlink="http://www.w3.org/1999/xlink" x="0px" y="0px"
	 viewBox="0 0 715 263" style="enable-background:new 0 0 715 263;" xml:space="preserve">
<style type="text/css">
	.st0{enable-background:new    ;}
	.st1{fill:#FFFFFF;}
	.st2{fill:#001D3D;}
	.st3{fill:#00143B;}
</style>
<title>Logo Luna WD</title>
<g>
	<g class="st0">
		<path class="st1" d="M299.6,183V16h23.3v150.3h42.7V183H299.6z"/>
		<path class="st1" d="M424.5,184.9c-12.1,0-21.4-2.4-27.8-7.2c-6.5-4.8-10.9-11.6-13.2-20.3s-3.5-18.9-3.5-30.6V16.1h22.3v111.7
			c0,7.1,0.5,13.7,1.4,19.6c1,5.9,3.1,10.6,6.3,14c3.2,3.4,8.1,5.2,14.5,5.2c6.6,0,11.5-1.7,14.6-5.2c3.2-3.4,5.2-8.1,6.2-14
			s1.4-12.4,1.4-19.6V16.1h22.1v110.7c0,11.7-1.2,21.9-3.5,30.6c-2.3,8.7-6.7,15.5-13.1,20.3C445.9,182.5,436.6,184.9,424.5,184.9z"
			/>
		<path class="st1" d="M493.4,183V16h15.9l47.4,110.9V16.1h19.4v167h-14.8l-48-114v114L493.4,183L493.4,183z"/>
		<path class="st1" d="M593.1,183l35.5-167h22.5l35.7,167h-22.1l-7.6-42.1h-34l-8,42.1H593.1z M626.1,124.3h27.8l-14-75.2
			L626.1,124.3z"/>
	</g>
	<g class="st0">
		<path class="st1" d="M299.2,248.8l-5.9-36.3h4.2l3.9,26.1l4.9-26h3.6l4.9,26.1l3.8-26.2h4.1l-5.8,36.3h-3.7l-5.1-26.9l-5.1,26.9
			L299.2,248.8L299.2,248.8z"/>
		<path class="st1" d="M349.2,248.8v-36.3h14.1v3.8h-9v12h7.3v3.6h-7.3v13.3h9.1v3.6L349.2,248.8L349.2,248.8z"/>
		<path class="st1" d="M389.4,248.8v-36.3h8.3c1.6,0,3.1,0.2,4.3,0.5c1.2,0.3,2.2,0.9,3,1.7c0.8,0.7,1.4,1.7,1.8,2.8
			c0.4,1.2,0.6,2.5,0.6,4.1c0,1.5-0.2,2.8-0.6,3.9c-0.4,1.1-0.9,2-1.7,2.6c-0.8,0.6-1.7,1-2.9,1.2c1.5,0.3,2.6,0.9,3.5,1.7
			s1.6,1.8,2,3s0.6,2.7,0.6,4.5c0,1.6-0.2,3-0.5,4.3c-0.4,1.3-0.9,2.4-1.7,3.3c-0.8,0.9-1.7,1.6-2.9,2.1c-1.2,0.5-2.6,0.7-4.2,0.7
			L389.4,248.8L389.4,248.8z M394.4,227.6h3c1.4,0,2.6-0.2,3.4-0.6c0.8-0.4,1.4-1.1,1.7-2c0.3-0.9,0.5-2.1,0.5-3.5
			c0-1.7-0.3-2.9-0.8-3.6c-0.5-0.7-1.3-1.2-2.4-1.4c-1.1-0.2-2.5-0.3-4.2-0.3h-1.2V227.6z M394.4,245.2h3.4c2.3,0,3.8-0.5,4.5-1.6
			c0.8-1.1,1.1-2.8,1.1-5.1c0-1.5-0.2-2.8-0.6-3.8s-1-1.8-1.9-2.3s-2.1-0.8-3.6-0.8h-3v13.6H394.4z"/>
		<path class="st1" d="M467.1,248.8v-36.3h7.9c2.7,0,4.8,0.4,6.4,1.2c1.6,0.8,2.7,2.1,3.4,3.7c0.7,1.6,1,3.7,1,6.1v13.4
			c0,2.6-0.3,4.7-1,6.5c-0.7,1.8-1.8,3.1-3.3,4s-3.5,1.4-6.1,1.4L467.1,248.8L467.1,248.8z M472.1,245.2h2.9c1.9,0,3.2-0.4,3.9-1.1
			c0.8-0.7,1.2-1.8,1.4-3.1c0.2-1.4,0.2-3,0.2-5v-11.8c0-1.9-0.1-3.4-0.4-4.6c-0.2-1.2-0.8-2-1.6-2.6c-0.8-0.5-2.1-0.8-3.8-0.8H472
			v29H472.1z"/>
		<path class="st1" d="M512.6,248.8v-36.3h14.1v3.8h-9v12h7.3v3.6h-7.3v13.3h9.1v3.6L512.6,248.8L512.6,248.8z"/>
		<path class="st1" d="M561.4,249.2c-2.1,0-3.8-0.4-5.2-1.3s-2.4-2.1-3.2-3.7c-0.7-1.6-1.1-3.4-1.3-5.5l4.5-1.2
			c0.1,1.3,0.3,2.5,0.6,3.7c0.3,1.2,0.8,2.2,1.5,2.9c0.7,0.8,1.7,1.1,3,1.1s2.3-0.4,3-1.1c0.7-0.7,1-1.8,1-3.2c0-1.6-0.4-3-1.1-4
			s-1.7-2-2.8-3l-6.1-5.4c-1.2-1-2.1-2.2-2.6-3.4c-0.6-1.2-0.9-2.8-0.9-4.6c0-2.7,0.8-4.7,2.3-6.2s3.6-2.2,6.2-2.2
			c1.4,0,2.7,0.2,3.8,0.6c1.1,0.4,2,0.9,2.7,1.7s1.3,1.8,1.7,2.9c0.4,1.2,0.7,2.6,0.9,4.1l-4.3,1.2c-0.1-1.2-0.3-2.3-0.5-3.3
			c-0.3-1-0.7-1.8-1.4-2.4c-0.7-0.6-1.6-0.9-2.9-0.9s-2.2,0.3-2.9,1s-1.1,1.7-1.1,3c0,1.1,0.2,2,0.6,2.7c0.4,0.7,1,1.4,1.8,2.2
			l6.1,5.4c1.4,1.2,2.6,2.6,3.6,4.3s1.6,3.6,1.6,5.9c0,1.8-0.4,3.3-1.1,4.6s-1.8,2.3-3.1,3C564.6,248.9,563.1,249.2,561.4,249.2z"/>
		<path class="st1" d="M596.3,248.8v-36.3h5v36.3H596.3z"/>
		<path class="st1" d="M637.8,249.2c-2.3,0-4.1-0.5-5.4-1.5c-1.4-1-2.3-2.4-3-4.2c-0.6-1.9-0.9-4.1-0.9-6.7v-12.1
			c0-2.7,0.3-4.9,0.8-6.8c0.6-1.9,1.5-3.3,3-4.3c1.4-1,3.4-1.5,5.9-1.5c2.3,0,4.1,0.4,5.5,1.1c1.4,0.8,2.4,1.9,3,3.5
			c0.6,1.6,0.9,3.5,0.9,5.9v1.3h-4.8v-1.1c0-1.6-0.1-2.9-0.3-3.9s-0.6-1.7-1.3-2.2c-0.6-0.5-1.7-0.7-3-0.7c-1.5,0-2.6,0.3-3.3,1
			s-1.1,1.6-1.3,2.8s-0.2,2.5-0.2,4v13.4c0,1.7,0.1,3.2,0.4,4.3c0.3,1.2,0.7,2,1.5,2.6c0.7,0.6,1.7,0.9,3,0.9s2.3-0.3,3-0.9
			c0.7-0.6,1.2-1.6,1.5-2.8s0.4-2.7,0.4-4.6v-2.5h-4.6v-3.6h9.2v18h-3.2l-0.5-4.2c-0.5,1.3-1.2,2.5-2.2,3.3S639.6,249.2,637.8,249.2
			z"/>
		<path class="st1" d="M675.1,248.8v-36.3h3.5l10.3,24.1v-24.1h4.2v36.3h-3.3L679.4,224v24.8H675.1z"/>
	</g>
</g>
<g>
	<circle class="st1" cx="138.5" cy="132.4" r="116.5"/>
	<path class="st2" d="M138.5,241.1c-60,0-108.7-48.6-108.7-108.7S78.5,23.8,138.5,23.8"/>
	<circle class="st3" cx="167.7" cy="208.9" r="14"/>
	<circle class="st3" cx="213.6" cy="174.3" r="10.1"/>
	<circle class="st3" cx="167.1" cy="154.1" r="6.3"/>
	<circle class="st3" cx="227.1" cy="115.2" r="4.9"/>
	<circle class="st3" cx="200.4" cy="141.1" r="2.5"/>
</g>
</svg>
