<?xml version="1.0" encoding="utf-8"?>
<!-- Generator: Adobe Illustrator 19.2.1, SVG Export Plug-In . SVG Version: 6.00 Build 0)  -->
<svg version="1.1" id="Camada_1" xmlns="http://www.w3.org/2000/svg" xmlns:xlink="http://www.w3.org/1999/xlink" x="0px" y="0px"
	 viewBox="0 0 454.7 724.6" style="enable-background:new 0 0 454.7 724.6;" xml:space="preserve">
<style type="text/css">
	.st0{enable-background:new    ;}
	.st1{fill:#FFFFFF;}
	.st2{fill:#001D3D;}
	.st3{fill:#00143B;}
</style>
<title>Logo Luna WD</title>
<g class="st0">
	<path class="st1" d="M33.8,644.5v-167h23.3v150.3h42.7v16.7H33.8z"/>
	<path class="st1" d="M158.7,646.4c-12.1,0-21.4-2.4-27.8-7.2c-6.5-4.8-10.9-11.6-13.2-20.3c-2.3-8.7-3.5-18.9-3.5-30.6V477.6h22.3
		v111.7c0,7.1,0.5,13.7,1.4,19.6c1,5.9,3.1,10.6,6.3,14c3.2,3.4,8.1,5.2,14.5,5.2c6.6,0,11.5-1.7,14.6-5.2c3.2-3.4,5.2-8.1,6.2-14
		c1-5.9,1.4-12.4,1.4-19.6V477.6H203v110.7c0,11.7-1.2,21.9-3.5,30.6c-2.3,8.7-6.7,15.5-13.1,20.3
		C180.1,644,170.8,646.4,158.7,646.4z"/>
	<path class="st1" d="M227.6,644.5v-167h15.9l47.4,110.9V477.6h19.4v167h-14.8l-48-114v114H227.6z"/>
	<path class="st1" d="M327.3,644.5l35.5-167h22.5l35.7,167h-22.1l-7.6-42.1h-34l-8,42.1H327.3z M360.3,585.8h27.8l-14-75.2
		L360.3,585.8z"/>
</g>
<g class="st0">
	<path class="st1" d="M33.4,710.3L27.5,674h4.2l3.9,26.1l4.9-26h3.6l4.9,26.1l3.8-26.2h4.1l-5.8,36.3h-3.7l-5.1-26.9l-5.1,26.9H33.4
		z"/>
	<path class="st1" d="M83.4,710.3V674h14.1v3.8h-9v12h7.3v3.6h-7.3v13.3h9.1v3.6H83.4z"/>
	<path class="st1" d="M123.6,710.3V674h8.3c1.6,0,3.1,0.2,4.3,0.5s2.2,0.9,3,1.7c0.8,0.7,1.4,1.7,1.8,2.8c0.4,1.2,0.6,2.5,0.6,4.1
		c0,1.5-0.2,2.8-0.6,3.9c-0.4,1.1-0.9,2-1.7,2.6c-0.8,0.6-1.7,1-2.9,1.2c1.5,0.3,2.6,0.9,3.5,1.7c0.9,0.8,1.6,1.8,2,3
		c0.4,1.2,0.6,2.7,0.6,4.5c0,1.6-0.2,3-0.5,4.3c-0.4,1.3-0.9,2.4-1.7,3.3c-0.8,0.9-1.7,1.6-2.9,2.1c-1.2,0.5-2.6,0.7-4.2,0.7H123.6z
		 M128.6,689.1h3c1.4,0,2.6-0.2,3.4-0.6c0.8-0.4,1.4-1.1,1.7-2c0.3-0.9,0.5-2.1,0.5-3.5c0-1.7-0.3-2.9-0.8-3.6
		c-0.5-0.7-1.3-1.2-2.4-1.4c-1.1-0.2-2.5-0.3-4.2-0.3h-1.2V689.1z M128.6,706.7h3.4c2.3,0,3.8-0.5,4.5-1.6c0.8-1.1,1.1-2.8,1.1-5.1
		c0-1.5-0.2-2.8-0.6-3.8c-0.4-1-1-1.8-1.9-2.3c-0.9-0.5-2.1-0.8-3.6-0.8h-3V706.7z"/>
	<path class="st1" d="M201.3,710.3V674h7.9c2.7,0,4.8,0.4,6.4,1.2c1.6,0.8,2.7,2.1,3.4,3.7s1,3.7,1,6.1v13.4c0,2.6-0.3,4.7-1,6.5
		c-0.7,1.8-1.8,3.1-3.3,4c-1.5,0.9-3.5,1.4-6.1,1.4H201.3z M206.3,706.7h2.9c1.9,0,3.2-0.4,3.9-1.1c0.8-0.7,1.2-1.8,1.4-3.1
		c0.2-1.4,0.2-3,0.2-5v-11.8c0-1.9-0.1-3.4-0.4-4.6c-0.2-1.2-0.8-2-1.6-2.6c-0.8-0.5-2.1-0.8-3.8-0.8h-2.7V706.7z"/>
	<path class="st1" d="M246.8,710.3V674h14.1v3.8h-9v12h7.3v3.6h-7.3v13.3h9.1v3.6H246.8z"/>
	<path class="st1" d="M295.6,710.7c-2.1,0-3.8-0.4-5.2-1.3s-2.4-2.1-3.2-3.7c-0.7-1.6-1.1-3.4-1.3-5.5l4.5-1.2
		c0.1,1.3,0.3,2.5,0.6,3.7s0.8,2.2,1.5,2.9c0.7,0.8,1.7,1.1,3,1.1c1.3,0,2.3-0.4,3-1.1c0.7-0.7,1-1.8,1-3.2c0-1.6-0.4-3-1.1-4
		c-0.7-1-1.7-2-2.8-3l-6.1-5.4c-1.2-1-2.1-2.2-2.6-3.4c-0.6-1.2-0.9-2.8-0.9-4.6c0-2.7,0.8-4.7,2.3-6.2c1.5-1.5,3.6-2.2,6.2-2.2
		c1.4,0,2.7,0.2,3.8,0.6c1.1,0.4,2,0.9,2.7,1.7c0.7,0.8,1.3,1.8,1.7,2.9c0.4,1.2,0.7,2.6,0.9,4.1l-4.3,1.2c-0.1-1.2-0.3-2.3-0.5-3.3
		c-0.3-1-0.7-1.8-1.4-2.4c-0.7-0.6-1.6-0.9-2.9-0.9c-1.3,0-2.2,0.3-2.9,1c-0.7,0.7-1.1,1.7-1.1,3c0,1.1,0.2,2,0.6,2.7
		c0.4,0.7,1,1.4,1.8,2.2l6.1,5.4c1.4,1.2,2.6,2.6,3.6,4.3c1,1.7,1.6,3.6,1.6,5.9c0,1.8-0.4,3.3-1.1,4.6c-0.7,1.3-1.8,2.3-3.1,3
		C298.8,710.4,297.3,710.7,295.6,710.7z"/>
	<path class="st1" d="M330.5,710.3V674h5v36.3H330.5z"/>
	<path class="st1" d="M372,710.7c-2.3,0-4.1-0.5-5.4-1.5c-1.4-1-2.3-2.4-3-4.2c-0.6-1.9-0.9-4.1-0.9-6.7v-12.1
		c0-2.7,0.3-4.9,0.8-6.8c0.6-1.9,1.5-3.3,3-4.3c1.4-1,3.4-1.5,5.9-1.5c2.3,0,4.1,0.4,5.5,1.1c1.4,0.8,2.4,1.9,3,3.5
		c0.6,1.6,0.9,3.5,0.9,5.9v1.3h-4.8v-1.1c0-1.6-0.1-2.9-0.3-3.9c-0.2-1-0.6-1.7-1.3-2.2c-0.6-0.5-1.7-0.7-3-0.7
		c-1.5,0-2.6,0.3-3.3,1c-0.7,0.7-1.1,1.6-1.3,2.8c-0.2,1.2-0.2,2.5-0.2,4v13.4c0,1.7,0.1,3.2,0.4,4.3c0.3,1.2,0.7,2,1.5,2.6
		c0.7,0.6,1.7,0.9,3,0.9c1.3,0,2.3-0.3,3-0.9c0.7-0.6,1.2-1.6,1.5-2.8c0.3-1.2,0.4-2.7,0.4-4.6v-2.5h-4.6v-3.6h9.2v18h-3.2l-0.5-4.2
		c-0.5,1.3-1.2,2.5-2.2,3.3S373.8,710.7,372,710.7z"/>
	<path class="st1" d="M409.3,710.3V674h3.5l10.3,24.1V674h4.2v36.3H424l-10.4-24.8v24.8H409.3z"/>
</g>
<circle class="st1" cx="220.3" cy="208.3" r="208.3"/>
<path class="st2" d="M220.4,402.7C113,402.7,26,315.7,26,208.3S113,14,220.4,14"/>
<circle class="st3" cx="272.7" cy="345" r="25"/>
<circle class="st3" cx="354.8" cy="283.1" r="18.1"/>
<circle class="st3" cx="271.6" cy="247.1" r="11.3"/>
<circle class="st3" cx="378.8" cy="177.5" r="8.7"/>
<circle class="st3" cx="331.2" cy="223.8" r="4.4"/>
</svg>
